<svg width="520" height="520" viewBox="0 0 520 520" fill="none" xmlns="http://www.w3.org/2000/svg">
  <rect width="520" height="520" rx="28" fill="#F8F3EB"/>
  <rect x="72" y="76" width="376" height="368" rx="28" fill="#FFFDF8" stroke="#DED4C6"/>
  <rect x="112" y="118" width="150" height="120" rx="18" fill="#F1E0D4"/>
  <circle cx="162" cy="159" r="24" fill="#7B2F19"/>
  <path d="M130 218C135 191 156 177 179 177C202 177 223 191 228 218V232H130V218Z" fill="#9B3D22"/>
  <rect x="286" y="124" width="122" height="14" rx="7" fill="#EDE1D4"/>
  <rect x="286" y="151" width="98" height="12" rx="6" fill="#EDE1D4"/>
  <rect x="286" y="176" width="110" height="12" rx="6" fill="#EDE1D4"/>
  <rect x="112" y="270" width="296" height="18" rx="9" fill="#EDE1D4"/>
  <rect x="112" y="304" width="264" height="14" rx="7" fill="#EDE1D4"/>
  <rect x="112" y="330" width="286" height="14" rx="7" fill="#EDE1D4"/>
  <rect x="112" y="356" width="212" height="14" rx="7" fill="#EDE1D4"/>
  <circle cx="390" cy="372" r="46" fill="#23352F"/>
  <path d="M369 372L383 386L412 357" stroke="#FFFDF8" stroke-width="10" stroke-linecap="round" stroke-linejoin="round"/>
</svg>
